HIERARCHY
ROOT Hips
{
	OFFSET 0.000000 0.000000 0.000000
	CHANNELS 6 Xposition Yposition Zposition Zrotation Yrotation Xrotation 
	JOINT LHipJoint
	{
		OFFSET 0.000000 0.000000 0.000000
		CHANNELS 3 Zrotation Yrotation Xrotation
		JOINT LeftUpLeg
		{
			OFFSET 1.363060 -1.794630 0.839290
			CHANNELS 3 Zrotation Yrotation Xrotation
			JOINT LeftLeg
			{
				OFFSET 2.448110 -6.726130 0.000000
				CHANNELS 3 Zrotation Yrotation Xrotation
				JOINT LeftFoot
				{
					OFFSET 2.562200 -7.039590 0.000000
					CHANNELS 3 Zrotation Yrotation Xrotation
					JOINT LeftToeBase
					{
						OFFSET 0.157640 -0.433110 2.322550
						CHANNELS 3 Zrotation Yrotation Xrotation
						End Site
						{
							OFFSET 0.000000 0.000000 0.000000
						}
					}
				}
			}
		}
	}
	JOINT RHipJoint
	{
		OFFSET 0.000000 0.000000 0.000000
		CHANNELS 3 Zrotation Yrotation Xrotation
		JOINT RightUpLeg
		{
			OFFSET -1.305520 -1.794630 0.839290
			CHANNELS 3 Zrotation Yrotation Xrotation
			JOINT RightLeg
			{
				OFFSET -2.542530 -6.985550 0.000000
				CHANNELS 3 Zrotation Yrotation Xrotation
				JOINT RightFoot
				{
					OFFSET -2.568260 -7.056230 0.000000
					CHANNELS 3 Zrotation Yrotation Xrotation
					JOINT RightToeBase
					{
						OFFSET -0.164730 -0.452590 2.363150
						CHANNELS 3 Zrotation Yrotation Xrotation
						End Site
						{
							OFFSET 0.000000 0.000000 0.000000
						}
					}
				}
			}
		}
	}
}
MOTION
Frames: 28
Frame Time: 0.008333
1.276151 15.707037 3.102110 0.480661 26.165452 35.735559 -7.768860 0.165725 1.677975 -15.938480 -8.413249 -75.816236 -2.698697 3.415561 41.990934 -0.051150 -2.364498 -5.182567 0.032999 -0.000000 -26.515099 9.488444 -0.308875 -2.322747 18.305064 2.738660 -36.398658 2.942988 -2.829976 52.780789 -1.102478 7.685978 -34.172519 178.464000 -0.000000 -5.785000
1.348239 15.666567 3.227530 0.272529 25.297906 35.165317 -7.828195 0.023754 1.556774 -15.293742 -8.133802 -76.031258 -2.359553 3.619145 44.664820 0.114172 -1.680823 -5.959536 0.071000 0.000000 -23.004700 9.669758 -0.365963 -2.456906 18.116821 2.065618 -36.165241 2.773067 -3.013433 54.534105 -0.861067 8.283072 -33.127451 178.181700 0.000000 -3.095200
1.416414 15.628466 3.353377 0.124484 24.418637 34.624851 -7.872126 -0.100441 1.402773 -14.871447 -7.772376 -76.146387 -2.070303 3.811182 47.229454 0.280922 -0.988918 -6.849880 0.092100 0.000000 -20.285900 9.869905 -0.412391 -2.568542 17.807349 1.435654 -35.965729 2.574331 -3.189579 56.250194 -0.614323 8.829038 -31.874564 -2.053900 -0.000000 -0.523200
1.480978 15.593150 3.479439 0.027085 23.540620 34.120768 -7.902141 -0.202389 1.228696 -14.645704 -7.351496 -76.151182 -1.833382 3.985226 49.590615 0.449396 -0.288222 -7.844271 0.092400 -0.000000 -18.490400 10.081104 -0.449447 -2.656590 17.399469 0.861823 -35.798274 2.351853 -3.355111 57.896271 -0.371701 9.311840 -30.442492 -2.230900 -0.000000 -4.946300
1.542534 15.560945 3.605416 -0.031194 22.673082 33.656528 -7.920536 -0.280547 1.045799 -14.578447 -6.893833 -76.045150 -1.646748 4.137649 51.694065 0.620865 0.421507 -8.938148 0.067300 0.000000 -17.608400 10.296107 -0.479056 -2.720602 16.917690 0.352301 -35.659862 2.107649 -3.507335 59.439971 -0.137582 9.719726 -28.810490 -2.336500 0.000000 -10.609200
1.601699 15.531973 3.731013 -0.066289 21.823137 33.230054 -7.931005 -0.336794 0.863349 -14.622070 -6.415942 -75.835504 -1.505071 4.267073 53.520309 0.795898 1.135778 -10.121340 0.012401 -0.000000 -17.540100 10.506212 -0.502754 -2.762512 16.394319 -0.088785 -35.546327 1.850311 -3.644631 60.870176 0.078351 10.058856 -27.048357 -2.373400 -0.000000 -16.961700
1.659237 15.506226 3.855952 -0.094179 20.994627 32.836758 -7.937652 -0.374761 0.688315 -14.729853 -5.931401 -75.533015 -1.401143 4.373663 55.075122 0.974049 1.847383 -11.373229 -0.075200 0.000000 -18.125300 10.704653 -0.522141 -2.785313 15.857905 -0.463102 -35.452650 1.587031 -3.766351 62.183166 0.270947 10.339854 -25.205357 -2.347700 0.000000 -23.606899
1.715791 15.483598 3.979952 -0.127081 20.189369 32.471391 -7.944527 -0.398968 0.525524 -14.859897 -5.450548 -75.150783 -1.326819 4.458927 56.382853 1.153604 2.547277 -12.663499 -0.195800 0.000000 -19.159200 10.886868 -0.538664 -2.792607 15.332111 -0.777132 -35.374262 1.322826 -3.872607 63.381898 0.438212 10.572163 -23.309984 -2.265500 0.000001 -30.403100
1.771882 15.463897 4.102788 -0.175893 19.409034 32.128128 -7.955560 -0.414153 0.378047 -14.977144 -4.979952 -74.705053 -1.273488 4.525625 57.482194 1.331485 3.224605 -13.956559 -0.346600 -0.000000 -20.407300 11.049650 -0.553354 -2.788993 14.837175 -1.039760 -35.308831 1.066504 -3.965164 64.491240 0.577840 10.779502 -21.456073 -2.146301 -0.000000 -36.326300
1.827837 15.446951 4.224259 -0.243949 18.654205 31.804216 -7.973251 -0.423949 0.247190 -15.059193 -4.526503 -74.212129 -1.233167 4.577115 58.416472 1.504128 3.870854 -15.214472 -0.521800 -0.000000 -21.638600 11.193260 -0.566889 -2.778180 14.382948 -1.265226 -35.257690 0.817178 -4.045368 65.520960 0.693033 10.961271 -19.617753 -1.990200 0.000000 -41.610100
1.883792 15.432556 4.344241 -0.331950 17.926713 31.498066 -7.999266 -0.431111 0.133039 -15.093595 -4.094573 -73.689072 -1.198715 4.617173 59.230604 1.667587 4.478630 -16.401184 -0.713000 0.000000 -22.670300 11.319031 -0.579262 -2.763782 13.974866 -1.468999 -35.226519 0.574225 -4.115152 66.487861 0.785423 11.114465 -17.785183 -1.798100 -0.000001 -46.264600
1.939631 15.420517 4.462653 -0.437115 17.229284 31.209849 -8.033992 -0.437039 0.034554 -15.079036 -3.686261 -73.152836 -1.164609 4.649604 59.964987 1.817999 5.041686 -17.485242 -0.910600 0.000000 -23.401000 11.429329 -0.589925 -2.749135 13.614602 -1.666706 -35.223965 0.337281 -4.176828 67.412227 0.855754 11.233228 -15.960666 -1.572700 0.000000 -50.166400
1.995084 15.410725 4.579408 -0.553855 16.565529 30.941176 -8.076652 -0.441983 -0.050103 -15.023020 -3.301270 -72.618338 -1.127389 4.677692 60.650539 1.952228 5.555482 -18.443173 -1.105101 0.000000 -23.819000 11.527056 -0.597813 -2.736854 13.300531 -1.873270 -35.261603 0.104483 -4.232470 68.309609 0.904012 11.300668 -14.129277 -1.312900 -0.000001 -53.454000
2.049706 15.403097 4.694445 -0.675536 15.938877 30.694054 -8.125535 -0.445284 -0.123270 -14.939514 -2.936664 -72.098402 -1.085821 4.704023 61.307147 2.068161 6.016100 -19.262889 -1.288200 -0.000000 -23.983300 11.614993 -0.601627 -2.729148 13.029642 -2.100960 -35.351882 -0.124390 -4.284370 69.197707 0.929555 11.300189 -12.301067 -1.023700 -0.000000 -56.081400
2.103017 15.397578 4.807715 -0.795920 15.352617 30.471084 -8.178316 -0.445809 -0.187622 -14.845383 -2.586922 -71.602260 -1.040728 4.730258 61.943171 2.165040 6.420671 -19.945131 -1.454000 -0.000000 -23.997600 11.695533 -0.600028 -2.727450 12.798058 -2.357736 -35.506900 -0.348793 -4.334705 70.092077 0.931817 11.213621 -10.497259 -0.714500 -0.000001 -58.018800
2.154567 15.394190 4.919117 -0.910092 14.808294 30.274041 -8.232574 -0.442476 -0.245714 -14.756560 -2.245429 -71.134858 -0.994446 4.757026 62.556261 2.243631 6.768471 -20.502418 -1.599500 0.000000 -23.981000 11.770163 -0.591781 -2.732742 12.602708 -2.647688 -35.737450 -0.567627 -4.385431 71.004470 0.910710 11.022515 -8.745915 -0.398700 0.000000 -59.321900
2.204000 15.392931 5.028564 -1.014718 14.305468 30.104156 -8.286111 -0.434481 -0.299849 -14.686464 -1.905192 -70.697665 -0.950193 4.784196 63.136715 2.305897 7.060840 -20.955763 -1.725000 0.000000 -24.044100 11.839515 -0.576068 -2.745332 12.441118 -2.969745 -36.051461 -0.778808 -4.438441 71.944741 0.867355 10.714682 -7.091332 -0.094900 0.000000 -60.007800
2.251062 15.393818 5.135949 -1.109298 13.841285 29.961394 -8.337429 -0.421783 -0.351949 -14.642464 -1.559984 -70.288610 -0.911316 4.811030 63.670903 2.354710 7.301582 -21.331829 -1.832900 0.000000 -24.273100 11.903221 -0.552402 -2.765145 12.312308 -3.318073 -36.454384 -0.980030 -4.495489 72.919817 0.804287 10.285529 -5.584691 0.176100 -0.000000 -60.132300
2.295698 15.396861 5.241159 -1.195530 13.410770 29.844531 -8.385984 -0.404992 -0.403527 -14.626224 -1.204028 -69.902649 -0.880790 4.836518 64.144216 2.393315 7.496740 -21.657381 -1.927100 0.000000 -24.717900 11.960130 -0.520898 -2.791447 12.216352 -3.682629 -36.948037 -1.169186 -4.558066 73.933289 0.725445 9.740568 -4.279074 0.395700 0.000000 -59.778600
2.337957 15.402037 5.344058 -1.276592 13.007126 29.751626 -8.431933 -0.385349 -0.455708 -14.634346 -0.834010 -69.533345 -0.860722 4.859554 64.544192 2.424769 7.653367 -21.955369 -2.011600 -0.000001 -25.395100 12.008767 -0.481984 -2.823332 12.154122 -4.051119 -37.532015 -1.344816 -4.627468 74.985738 0.635831 9.096176 -3.221939 0.551100 0.000000 -59.064800
2.378041 15.409293 5.444569 -1.357351 12.622851 29.679957 -8.476495 -0.364548 -0.509201 -14.658890 -0.447550 -69.173886 -0.852173 4.879303 64.862854 2.451457 7.778084 -22.242659 -2.090001 0.000000 -26.276300 12.047233 -0.436491 -2.859306 12.126575 -4.409335 -38.203233 -1.506037 -4.704474 76.073807 0.541224 8.380591 -2.451104 0.637600 0.000000 -58.115600
2.416244 15.418543 5.542644 -1.442752 12.250328 29.626670 -8.521323 -0.344590 -0.564386 -14.689263 -0.044726 -68.818134 -0.854960 4.895177 65.097718 2.475010 7.877193 -22.527816 -2.164400 -0.000000 -27.305101 12.073787 -0.385347 -2.897757 12.134792 -4.743204 -38.957351 -1.652700 -4.789430 77.191075 0.447509 7.630710 -1.988368 0.659800 0.000000 -57.061000
2.452829 15.429653 5.638261 -1.536799 11.882948 29.588986 -8.568233 -0.327456 -0.621256 -14.713851 0.372578 -68.461880 -0.867825 4.907006 65.252238 2.496080 7.955279 -22.811381 -2.235300 0.000000 -28.401000 12.087075 -0.329383 -2.936920 12.178748 -5.040498 -39.789045 -1.785054 -4.882114 78.327328 0.360226 6.888828 -1.837229 0.629700 0.000000 -56.012499
2.488044 15.442476 5.731484 -1.642275 11.516308 29.564726 -8.618895 -0.314846 -0.679696 -14.722260 0.800527 -68.102415 -0.888495 4.914974 65.335656 2.514518 8.015864 -23.086400 -2.301600 -0.000000 -29.477700 12.086291 -0.269146 -2.975184 12.257415 -5.292094 -40.693009 -1.903469 -4.981848 79.469104 0.284149 6.197940 -1.982611 0.563500 -0.000001 -55.054201
2.522086 15.456821 5.822431 -1.759538 11.148348 29.552523 -8.674387 -0.307994 -0.739325 -14.706383 1.233379 -67.739340 -0.914135 4.919542 65.361045 2.529508 8.060913 -23.340656 -2.361300 0.000000 -30.459600 12.071313 -0.204775 -3.011031 12.368357 -5.492482 -41.664286 -2.008192 -5.087525 80.599412 0.222921 5.596574 -2.392293 0.477500 0.000000 -54.237100
2.554990 15.472524 5.911343 -1.886598 10.779787 29.552676 -8.734802 -0.307451 -0.799589 -14.662359 1.663843 -67.374720 -0.941821 4.921337 65.343762 2.540061 8.091541 -23.561062 -2.411700 -0.000000 -31.277300 12.042850 -0.135944 -3.043111 12.507058 -5.640682 -42.699365 -2.099212 -5.197881 81.698609 0.178850 5.114730 -3.020029 0.385101 0.000000 -53.578100
2.586771 15.489392 5.998297 -2.020758 10.413047 29.562448 -8.800381 -0.313289 -0.860494 -14.588053 2.086658 -67.009113 -0.968345 4.921198 65.299458 2.544740 8.109027 -23.728501 -2.449100 -0.000000 -31.953200 12.001397 -0.062128 -3.071089 12.669805 -5.740451 -43.792527 -2.176483 -5.311293 82.745738 0.152542 4.768955 -3.808226 0.295000 0.000001 -53.074199
2.617324 15.507246 6.083529 -2.156820 10.052981 29.582050 -8.869739 -0.324776 -0.921925 -14.487084 2.495081 -66.645070 -0.991563 4.919760 65.241971 2.542637 8.113183 -23.832741 -2.471600 0.000000 -32.494400 11.948431 0.017651 -3.094574 12.850697 -5.798688 -44.941236 -2.239915 -5.426405 83.719304 0.143027 4.561614 -4.694216 0.211500 -0.000000 -52.700400
